<svg width="36" height="36" viewBox="0 0 36 36" fill="none" xmlns="http://www.w3.org/2000/svg">
<g clip-path="url(#clip0_3830_2791)">
<path fill-rule="evenodd" clip-rule="evenodd" d="M28.4577 1.49814C29.6973 1.94087 30.7417 2.68729 31.5917 3.73718C32.4409 4.78798 32.8662 6.0331 32.8662 7.47275C32.8662 9.43187 32.2194 11.025 30.9275 12.2521C29.6347 13.4799 27.8086 14.0934 25.4485 14.0934C24.8706 14.0934 24.2452 14.0522 23.5724 13.9693C22.8996 13.8871 22.1794 13.7628 21.4126 13.5977L21.4156 19.5691V20.8189C21.4696 21.4701 21.5672 21.9362 21.7194 22.1718C22.1557 22.8328 22.8815 23.1632 23.8967 23.1632H25.1404C25.216 23.1632 25.2775 23.2245 25.2775 23.3003V23.6807C25.2775 23.7563 25.2161 23.8178 25.1404 23.8178H23.9941C23.342 23.8561 22.7736 23.9401 22.4998 24.0741C22.1164 24.2624 21.8334 24.5355 21.6499 24.894C21.5367 25.1161 21.4585 25.7444 21.4154 26.4662V27.4083H21.4166C21.4141 27.5545 21.4124 27.6999 21.4124 27.8415V32.9386C21.4124 33.0562 21.3441 33.1667 21.2392 33.2199C19.9391 33.8798 18.6356 34.3546 17.3698 34.6708C16.048 35.001 14.5789 35.1658 12.9621 35.1658C8.95136 35.1658 6.0139 34.0553 3.73586 31.8997C2.17471 30.4224 1.10244 28.4803 0.526902 26.4093C-0.41429 23.0237 -0.0803671 19.8508 1.52856 16.8904C2.7319 14.6711 4.17848 13.1349 6.4849 11.7676C8.22063 10.7386 10.3202 10.2819 12.7165 10.2819C13.5894 10.2819 14.3831 10.3506 15.0971 10.4871C15.7882 10.6192 16.765 10.9099 18.0148 11.3516L18.0136 5.08268C18.0136 3.57264 17.8547 2.6341 17.5353 2.2681C17.0751 1.74864 16.3904 1.48937 15.482 1.48937H14.7163C14.6406 1.48937 14.5792 1.42798 14.5792 1.35218V0.971062C14.5792 0.895485 14.6405 0.833984 14.7163 0.833984H23.3772C25.5253 0.833984 27.2188 1.05529 28.4577 1.49814ZM15.3875 23.818H14.2412C14.1656 23.818 14.1041 23.7566 14.1041 23.6809V23.3005C14.1041 23.2248 14.1655 23.1634 14.2412 23.1634H15.4849C16.4999 23.1634 17.2258 22.833 17.6622 22.1721C17.8143 21.9364 17.9119 21.4702 17.966 20.8192C17.996 20.4586 18.0164 20.0573 18.0164 19.5693L18.0149 12.4247C16.6292 11.6009 14.8361 11.2139 13.0525 11.2778C10.0435 11.3856 7.67071 12.4447 6.07759 14.7784C4.74386 16.7477 4.0774 19.2931 4.0774 22.0143C4.0774 24.223 4.52013 26.8569 5.4049 28.6781C6.29036 30.4994 7.4494 31.8348 8.88363 32.6822C10.3177 33.5311 11.4695 34.0052 12.9796 34.0052C13.865 34.0052 14.7205 33.8969 15.5466 33.6803C16.3143 33.4798 17.1159 33.1507 17.8414 32.7668C17.944 32.7126 18.0059 32.6048 18.0059 32.4889V27.8271C18.0059 27.3859 17.9927 26.9088 17.9661 26.4664C17.923 25.7446 17.8449 25.1164 17.7317 24.8942C17.5482 24.5357 17.2652 24.2626 16.8817 24.0743C16.6079 23.9403 16.0397 23.8563 15.3875 23.818ZM24.3156 12.9433C25.5426 12.9433 26.6021 12.4681 27.4931 11.5177C28.3841 10.5682 28.8301 9.33795 28.8301 7.8271C28.8301 6.78829 28.6174 5.82368 28.1928 4.93268C27.7675 4.04168 27.1659 3.37429 26.387 2.93237C25.6083 2.48964 24.7227 2.26833 23.7313 2.26833C23.2162 2.26833 22.5755 2.3506 21.8094 2.51514C21.4126 2.57872 21.4126 2.96214 21.4126 2.96214V12.589C21.4126 12.589 22.592 12.7953 23.0767 12.8546C23.5606 12.9131 23.9732 12.9433 24.3156 12.9433ZM28.0494 30.524C28.0324 30.6374 28.0473 30.7645 28.0943 30.9044L28.0941 30.9045L28.1468 30.8899C28.1149 30.698 28.1569 30.5511 28.2723 30.4491C28.3436 30.3861 28.4243 30.357 28.5138 30.362C28.6037 30.3667 28.6824 30.4073 28.7501 30.4841C28.8019 30.5429 28.8364 30.6087 28.8528 30.6814C28.8692 30.7543 28.8636 30.8345 28.8351 30.9214C28.8069 31.0087 28.7667 31.0818 28.7143 31.1413L28.7441 31.1748L28.7799 31.1433C28.8377 31.092 28.9054 31.0538 28.9824 31.0288C29.0598 31.0036 29.1276 30.9918 29.1859 30.9933C29.2279 30.9943 29.2773 31.0072 29.3334 31.032C29.4086 31.065 29.4721 31.1107 29.524 31.1696C29.595 31.2498 29.6285 31.3443 29.6243 31.4527C29.6198 31.561 29.5798 31.6488 29.5039 31.7158C29.4726 31.7434 29.4396 31.7652 29.4051 31.7811C29.3838 31.792 29.3406 31.8051 29.2753 31.8213C29.21 31.8371 29.1694 31.8491 29.1535 31.8562C29.1287 31.8674 29.1071 31.8813 29.0888 31.8976C29.064 31.9192 29.0503 31.9461 29.0471 31.9778C29.0445 32.0099 29.0524 32.0365 29.0712 32.058C29.097 32.0871 29.1394 32.0981 29.1985 32.0908C29.2576 32.0835 29.3385 32.035 29.4402 31.9448C29.6464 31.7629 29.7484 31.5613 29.7469 31.3402C29.7452 31.1707 29.6866 31.0204 29.5712 30.8895C29.4903 30.7981 29.3961 30.7394 29.2887 30.7138C29.1813 30.6882 29.0649 30.6981 28.9398 30.7438C28.9745 30.504 28.9428 30.3291 28.8458 30.2189C28.7867 30.1519 28.7068 30.1107 28.6055 30.0953C28.4713 30.0738 28.3435 30.1165 28.2219 30.2234C28.1238 30.3101 28.0662 30.4103 28.0494 30.524ZM29.7444 28.7332L29.7843 28.7714C29.703 28.8749 29.6476 28.9702 29.6183 29.0568C29.5887 29.1436 29.5754 29.2441 29.5771 29.3582C29.5793 29.4724 29.5974 29.5829 29.6317 29.6895C29.6659 29.7962 29.7198 29.9097 29.7932 30.0298C29.8215 29.8586 29.8855 29.721 29.9853 29.6173C30.0809 29.5178 30.204 29.4702 30.3541 29.4741C30.5044 29.4784 30.6424 29.5409 30.7685 29.6619C30.8902 29.7788 30.9656 29.9225 30.9946 30.0926C31.031 30.2981 30.9789 30.4743 30.8387 30.6202C30.7432 30.7194 30.629 30.7723 30.4965 30.7783C30.2377 30.7912 30.0061 30.6994 29.8023 30.5036C29.6723 30.378 29.5733 30.2327 29.506 30.068C29.439 29.903 29.4068 29.7279 29.409 29.5436C29.4117 29.3592 29.4395 29.2078 29.4935 29.0889C29.5472 28.9699 29.6109 28.872 29.6846 28.7954L29.7442 28.7331L29.7444 28.7332ZM29.8541 30.1232C29.9382 30.2292 30.01 30.3106 30.0695 30.3678C30.1381 30.434 30.2246 30.4928 30.3299 30.545C30.4346 30.5971 30.5351 30.6207 30.6302 30.6159C30.6992 30.6117 30.7585 30.5834 30.8086 30.5314C30.8684 30.4693 30.8927 30.3854 30.8813 30.2799C30.8696 30.1742 30.8093 30.0695 30.7008 29.9647C30.5785 29.847 30.4489 29.7694 30.3129 29.7322C30.1764 29.6947 30.0655 29.7208 29.9791 29.8104C29.953 29.8374 29.931 29.8723 29.9123 29.9142C29.8939 29.9566 29.8743 30.0263 29.854 30.1234L29.8541 30.1232ZM30.7213 27.6406L30.6784 27.6058H30.6782L30.6238 27.6729C30.5565 27.755 30.5013 27.8577 30.4571 27.9806C30.4131 28.1035 30.3972 28.2573 30.4101 28.441C30.4226 28.6249 30.469 28.7966 30.5496 28.9555C30.6296 29.1145 30.7398 29.2513 30.8797 29.3655C31.0988 29.5443 31.3369 29.6168 31.5937 29.5833C31.7255 29.5665 31.8348 29.5046 31.9223 29.3976C32.0504 29.2406 32.0882 29.0614 32.0353 28.8594C31.9918 28.6921 31.9049 28.5553 31.7744 28.4484C31.6392 28.3382 31.4965 28.2868 31.3461 28.2948C31.196 28.3032 31.0772 28.3606 30.99 28.4675C30.8992 28.5789 30.8464 28.7214 30.832 28.8941C30.7495 28.7805 30.6865 28.6718 30.6435 28.5683C30.6006 28.4648 30.5736 28.3561 30.5624 28.2424C30.5515 28.129 30.557 28.0277 30.5788 27.9386C30.601 27.8498 30.6486 27.7505 30.7213 27.6406ZM31.1347 29.2084C31.0713 29.1564 30.993 29.0812 30.9007 28.9824L30.9008 28.9823C30.9132 28.8837 30.9269 28.8124 30.942 28.769C30.9572 28.7256 30.9762 28.6892 31.0003 28.6601C31.0784 28.5638 31.1872 28.5288 31.3262 28.5549C31.465 28.5812 31.6002 28.6482 31.7317 28.7554C31.8486 28.8507 31.9172 28.9508 31.9372 29.0547C31.9571 29.159 31.9399 29.2443 31.8853 29.3111C31.8394 29.3674 31.7825 29.4004 31.7143 29.4101C31.6195 29.4223 31.5175 29.4069 31.4088 29.3637C31.3 29.3203 31.2087 29.2688 31.1347 29.2084ZM32.9622 27.9895L32.9152 27.961L32.9544 27.896C32.9986 27.823 33.0068 27.757 32.9786 27.6982C32.9622 27.6627 32.9048 27.6154 32.8071 27.556L31.692 26.8795C31.584 26.8142 31.5094 26.7853 31.4677 26.7924C31.4104 26.803 31.362 26.8411 31.3223 26.9063L31.2829 26.971L31.2357 26.9428L31.6618 26.2397C31.8186 25.9819 31.9665 25.8032 32.1071 25.7045C32.247 25.6055 32.4103 25.5561 32.597 25.5574C32.7829 25.558 32.9657 25.613 33.1447 25.7217C33.3852 25.8674 33.5415 26.0619 33.6142 26.3056C33.6949 26.5789 33.6334 26.8829 33.4301 27.2182L32.9623 27.9898L32.9622 27.9895ZM33.1362 27.4212C33.2255 27.3276 33.2923 27.2445 33.3365 27.1715C33.4559 26.9744 33.4859 26.7691 33.426 26.5555C33.3665 26.3416 33.2183 26.1631 32.9813 26.0192C32.7431 25.8748 32.5155 25.8256 32.2993 25.8721C32.0832 25.9187 31.9133 26.0438 31.7895 26.2476C31.7434 26.3237 31.7029 26.4184 31.6681 26.5307L33.1361 27.4212H33.1362ZM33.7894 25.1737L34.1135 24.4622L34.4282 24.4715C34.5308 24.4744 34.6017 24.4851 34.6414 24.5032C34.6712 24.5166 34.6908 24.5409 34.6997 24.5761C34.7086 24.6113 34.6984 24.6665 34.6687 24.7411L34.7187 24.764L35.0489 24.039L34.9988 24.0162C34.9601 24.0892 34.9132 24.1384 34.8571 24.1636C34.8017 24.1889 34.7003 24.1994 34.5543 24.1949L32.7342 24.1386L32.7129 24.186L33.9309 25.5209C34.0379 25.6376 34.103 25.7288 34.1254 25.7944C34.1366 25.8271 34.1317 25.8847 34.1103 25.9676L34.1602 25.9904L34.4237 25.4116L34.3736 25.3888C34.3275 25.4747 34.2872 25.5261 34.254 25.5429C34.2207 25.5598 34.1897 25.5621 34.1617 25.5494C34.1267 25.5334 34.0803 25.4936 34.0227 25.4303L33.7894 25.1737ZM33.1112 24.4281L33.996 24.4544L33.7083 25.086L33.1112 24.4281ZM33.5576 22.1246L33.7822 21.457L33.8344 21.4744L33.8219 21.5114C33.8137 21.5359 33.8125 21.5752 33.8182 21.6295C33.8242 21.6839 33.8411 21.7369 33.8686 21.7891C33.896 21.8415 33.9458 21.9112 34.0181 21.9983L34.5901 22.7039L35.0699 22.8652C35.1876 22.9046 35.2655 22.9163 35.3035 22.8997C35.355 22.8771 35.394 22.8272 35.4196 22.7502L35.4405 22.6882L35.4929 22.7056L35.2197 23.5186L35.1678 23.5009L35.1904 23.4332C35.2174 23.3523 35.2122 23.2868 35.175 23.2364C35.1517 23.2056 35.0864 23.1721 34.9792 23.1361L34.5261 22.984L33.5478 23.2396C33.4328 23.2702 33.3601 23.2924 33.3291 23.3066C33.2981 23.3211 33.2545 23.3573 33.198 23.4158C33.1823 23.4317 33.1685 23.4572 33.1566 23.493L33.1042 23.4753L33.3792 22.6568L33.4316 22.6742L33.4171 22.7167C33.4023 22.7609 33.399 22.8051 33.4072 22.8492C33.4154 22.8934 33.4405 22.9222 33.4816 22.9364C33.5157 22.9476 33.5864 22.9396 33.6941 22.9118L34.4453 22.7197L33.9815 22.1459C33.9118 22.0594 33.8554 22.0094 33.8122 21.9947C33.7857 21.9861 33.7598 21.9848 33.7348 21.9915C33.7095 21.9982 33.6867 22.0124 33.666 22.0337C33.646 22.0553 33.6273 22.0913 33.6102 22.1422L33.5578 22.1245L33.5576 22.1246ZM34.022 20.1092L34.0217 20.1091H34.022L34.022 20.1092ZM34.022 20.1092L34.0099 20.1628C34.0535 20.1826 34.0811 20.2022 34.0923 20.2216C34.1037 20.241 34.1064 20.2631 34.1012 20.2884C34.0962 20.3108 34.0753 20.3462 34.0389 20.3951C33.9617 20.5011 33.9112 20.6063 33.8879 20.7111C33.8504 20.8785 33.871 21.0279 33.9492 21.1592C34.0271 21.2904 34.1371 21.3719 34.2785 21.4034C34.3599 21.4215 34.4386 21.4198 34.5145 21.3979C34.5904 21.3764 34.6646 21.3362 34.7366 21.2774C34.8088 21.2185 34.9106 21.1156 35.0426 20.9679C35.1749 20.8202 35.2595 20.7307 35.297 20.6996C35.3522 20.653 35.4072 20.6218 35.4628 20.6061C35.5182 20.5904 35.57 20.5879 35.6187 20.5986C35.7058 20.6179 35.7736 20.6698 35.8217 20.7547C35.8701 20.839 35.8805 20.9417 35.854 21.0629C35.8306 21.1676 35.7857 21.2584 35.7197 21.3359C35.6537 21.4133 35.581 21.4654 35.501 21.4924C35.4213 21.5192 35.3079 21.5297 35.161 21.5235L35.1485 21.5774L35.8248 21.7275L35.8367 21.6738C35.7925 21.657 35.7649 21.6399 35.7535 21.6225C35.7417 21.6053 35.7391 21.5845 35.7442 21.5602C35.7499 21.5351 35.7785 21.4785 35.8301 21.3909C35.8814 21.3031 35.9132 21.2451 35.9246 21.216C35.9444 21.1676 35.9611 21.1148 35.9735 21.0574C36.014 20.8753 35.9934 20.7144 35.911 20.5744C35.8286 20.4347 35.7132 20.3481 35.5638 20.3148C35.4852 20.2975 35.4063 20.299 35.3263 20.3193C35.2464 20.3396 35.1726 20.3776 35.1049 20.4332C35.0372 20.4891 34.9332 20.5978 34.7935 20.7599C34.6222 20.9587 34.4937 21.0799 34.4073 21.1239C34.3488 21.1547 34.2895 21.1634 34.2294 21.15C34.151 21.1323 34.0882 21.0839 34.0413 21.0043C33.9947 20.9246 33.9822 20.8345 34.0046 20.7338C34.0244 20.6447 34.0666 20.5636 34.1304 20.4903C34.1944 20.4172 34.2702 20.3665 34.3579 20.3387C34.4456 20.3109 34.5567 20.3029 34.6912 20.3146L34.7034 20.2607L34.022 20.1092Z" fill="#353331"/>
</g>
<defs>
<clipPath id="clip0_3830_2791">
<rect width="36" height="36" fill="white"/>
</clipPath>
</defs>
</svg>
