<svg width="162" height="25" viewBox="0 0 162 25" fill="none" xmlns="http://www.w3.org/2000/svg">
<path d="M5.03789 10.7586V15.6578C5.03789 16.7168 5.15666 17.37 5.40409 17.6274C5.7307 17.9936 6.23547 18.1717 6.90849 18.1717H7.59141V18.627H0.000131737V18.1717H0.663255C1.41545 18.1717 1.94991 17.9441 2.26663 17.4789C2.44478 17.2216 2.52396 16.6178 2.52396 15.6578V4.7905C2.52396 3.73148 2.40519 3.07825 2.16765 2.82092C1.83114 2.45472 1.32638 2.27657 0.653358 2.27657H-0.00976562V1.82129H6.47301C8.05658 1.82129 9.30365 1.97965 10.2142 2.28647C11.1248 2.59328 11.8968 3.11784 12.5203 3.86015C13.1438 4.60245 13.4605 5.46352 13.4605 6.47305C13.4605 7.84878 12.9855 8.95729 12.0353 9.81836C11.0852 10.6794 9.73914 11.105 7.9972 11.105C7.57161 11.105 7.10644 11.0753 6.61157 11.0159C6.1167 10.9566 5.58224 10.8675 5.01809 10.7586H5.03789ZM5.03789 10.046C5.50307 10.1252 5.90886 10.1945 6.26516 10.234C6.62147 10.2736 6.92829 10.2934 7.17572 10.2934C8.07638 10.2934 8.85827 9.95692 9.52139 9.2938C10.1746 8.63067 10.5111 7.7696 10.5111 6.71059C10.5111 5.98808 10.3528 5.30516 10.046 4.68163C9.72924 4.05809 9.29375 3.59292 8.71971 3.2762C8.14566 2.95949 7.49243 2.81103 6.76003 2.81103C6.31465 2.81103 5.7505 2.8902 5.04779 3.04856V10.0361L5.03789 10.046Z" fill="black"/>
<path d="M16.5989 11.5509C16.5989 13.2335 17.0244 14.5597 17.8954 15.5198C18.7664 16.4798 19.7858 16.9549 20.9636 16.9549C21.7455 16.9549 22.4284 16.747 23.0024 16.3412C23.5765 15.9354 24.0615 15.2327 24.4574 14.243L24.8632 14.4904C24.685 15.6187 24.1505 16.658 23.2697 17.5784C22.3888 18.5088 21.2902 18.9739 19.964 18.9739C18.5288 18.9739 17.3016 18.4395 16.2821 17.3805C15.2627 16.3214 14.748 14.8863 14.748 13.0949C14.748 11.155 15.2726 9.64072 16.3217 8.55201C17.3708 7.4633 18.6872 6.91895 20.2708 6.91895C21.6069 6.91895 22.7055 7.33463 23.5666 8.17591C24.4277 9.01719 24.8632 10.1356 24.8632 11.541H16.5989V11.5509ZM16.5989 10.8284H22.1315C22.0919 10.1059 21.9929 9.59123 21.8544 9.29431C21.6366 8.82914 21.31 8.47283 20.8844 8.2056C20.4489 7.93837 20.0035 7.80971 19.5384 7.80971C18.8159 7.80971 18.1725 8.07694 17.5985 8.61139C17.0244 9.14585 16.6978 9.88815 16.5989 10.8383V10.8284Z" fill="black"/>
<path d="M29.8113 6.93848V9.492C30.811 7.78965 31.8403 6.93848 32.8894 6.93848C33.3645 6.93848 33.7604 7.07704 34.0771 7.35417C34.3938 7.63129 34.5423 7.94801 34.5423 8.31421C34.5423 8.64082 34.4334 8.90805 34.2058 9.13569C33.9781 9.36333 33.7109 9.4722 33.3942 9.4722C33.0775 9.4722 32.7508 9.33364 32.3648 9.04661C31.9887 8.75959 31.7017 8.62103 31.5236 8.62103C31.3652 8.62103 31.197 8.70021 31.0188 8.86846C30.6229 9.20497 30.227 9.76912 29.8014 10.5411V15.9847C29.8014 16.6082 29.8806 17.0932 30.0489 17.4099C30.1577 17.6375 30.3656 17.8157 30.6526 17.9641C30.9396 18.1126 31.3553 18.1918 31.8898 18.1918V18.6372H25.7732V18.1918C26.3868 18.1918 26.8322 18.1027 27.1291 17.9147C27.3469 17.786 27.4953 17.5682 27.5844 17.2812C27.624 17.1427 27.6537 16.7369 27.6537 16.0836V11.6793C27.6537 10.3531 27.624 9.57117 27.5646 9.31384C27.5052 9.06641 27.4063 8.87836 27.2479 8.75959C27.0994 8.64082 26.9114 8.59134 26.6838 8.59134C26.4165 8.59134 26.1097 8.65072 25.7732 8.77939L25.6445 8.334L29.2571 6.94837H29.8014L29.8113 6.93848Z" fill="black"/>
<path d="M39.749 8.16529V15.6279C39.749 16.6869 39.8678 17.3599 40.1152 17.6371C40.4418 18.0033 40.8674 18.1814 41.4118 18.1814H42.4906V18.6268H35.3546V18.1814H35.889C36.2354 18.1814 36.5522 18.1022 36.8392 17.934C37.1262 17.7657 37.3241 17.548 37.433 17.261C37.5419 16.9838 37.6013 16.4296 37.6013 15.6279V8.16529H35.2754V7.27453H37.6013V6.53223C37.6013 5.40393 37.7893 4.44389 38.1753 3.6521C38.5613 2.87021 39.1453 2.23678 39.9272 1.7518C40.7189 1.26683 41.5998 1.0293 42.5796 1.0293C43.4902 1.0293 44.3315 1.30642 45.0936 1.87057C45.5983 2.24667 45.8458 2.66236 45.8458 3.11764C45.8458 3.36507 45.7369 3.60261 45.5093 3.82035C45.2816 4.03809 45.0441 4.14697 44.7769 4.14697C44.5789 4.14697 44.3612 4.07768 44.1434 3.93912C43.9257 3.80056 43.6486 3.51353 43.3318 3.05826C43.0052 2.60298 42.7182 2.30606 42.4411 2.1477C42.1739 1.98934 41.867 1.91016 41.5404 1.91016C41.1445 1.91016 40.7981 2.00914 40.521 2.21698C40.2439 2.42482 40.0459 2.73164 39.9173 3.15723C39.7985 3.58282 39.7391 4.68142 39.7391 6.45305V7.27453H42.8172V8.16529H39.7391H39.749Z" fill="black"/>
<path d="M54.3162 7.27539V14.1541C54.3162 15.4704 54.3459 16.2721 54.4152 16.569C54.4844 16.8659 54.5834 17.0639 54.7319 17.1827C54.8704 17.3014 55.0387 17.3608 55.2367 17.3608C55.5039 17.3608 55.8107 17.2915 56.1472 17.153L56.3254 17.5884L52.7524 18.984H52.1685V16.5789C51.1391 17.6379 50.3573 18.3011 49.8228 18.5782C49.2883 18.8553 48.7143 18.984 48.1106 18.984C47.4375 18.984 46.8635 18.7959 46.3686 18.4297C45.8737 18.0635 45.5372 17.5884 45.3393 17.0144C45.1512 16.4403 45.0523 15.6189 45.0523 14.5598V9.4924C45.0523 8.95794 44.9929 8.58184 44.8741 8.374C44.7553 8.16615 44.5673 8.0078 44.3298 7.89892C44.0922 7.79005 43.6567 7.73067 43.0332 7.74057V7.28529H47.2198V14.8865C47.2198 15.9455 47.4177 16.6383 47.8037 16.9649C48.1897 17.2915 48.6549 17.4598 49.2092 17.4598C49.5853 17.4598 50.0108 17.3509 50.4859 17.1233C50.961 16.8956 51.5251 16.47 52.1784 15.8465V9.41322C52.1784 8.76989 52.0596 8.33441 51.8023 8.10677C51.5548 7.87913 51.0402 7.76036 50.2583 7.74057V7.28529H54.3261L54.3162 7.27539Z" fill="black"/>
<path d="M60.6217 9.35343C61.4927 8.53195 62.0074 8.04698 62.1657 7.92821C62.5616 7.6115 62.9773 7.37396 63.4326 7.19581C63.8879 7.02755 64.3332 6.93848 64.7786 6.93848C65.5308 6.93848 66.1742 7.14632 66.7086 7.56201C67.2431 7.9777 67.6093 8.57154 67.7874 9.36333C68.6881 8.37359 69.4403 7.72037 70.0539 7.41355C70.6676 7.10673 71.3109 6.94837 71.9542 6.94837C72.5975 6.94837 73.1518 7.10673 73.6467 7.41355C74.1415 7.72037 74.5275 8.22513 74.8145 8.92785C75.0026 9.40292 75.1016 10.1551 75.1016 11.1844V16.0638C75.1016 16.7765 75.161 17.2614 75.2698 17.5287C75.3589 17.7068 75.5173 17.8652 75.7548 17.9938C75.9923 18.1225 76.3684 18.1819 76.9029 18.1819V18.6273H71.0041V18.1819H71.2515C71.7662 18.1819 72.1621 18.0829 72.4491 17.8949C72.647 17.7662 72.7955 17.5484 72.8846 17.2614C72.9242 17.1229 72.9341 16.7171 72.9341 16.0638V11.1844C72.9341 10.264 72.8153 9.61076 72.5777 9.22477C72.2412 8.70021 71.6969 8.43298 70.9447 8.43298C70.4795 8.43298 70.0242 8.54185 69.5591 8.75959C69.0939 8.97733 68.5297 9.38312 67.8666 9.97697L67.8369 10.1155L67.8666 10.65V16.0638C67.8666 16.8457 67.9161 17.3208 68.0052 17.5188C68.0942 17.7068 68.2724 17.8652 68.5198 17.9938C68.7673 18.1225 69.2027 18.1819 69.8065 18.1819V18.6273H63.7691V18.1819C64.4322 18.1819 64.8875 18.1027 65.1349 17.9542C65.3824 17.8058 65.5506 17.5781 65.6496 17.2812C65.6892 17.1427 65.7189 16.727 65.7189 16.0539V11.1745C65.7189 10.2541 65.5803 9.58107 65.2933 9.17528C64.9073 8.65072 64.3728 8.38349 63.6899 8.38349C63.2247 8.38349 62.7596 8.50226 62.2944 8.7398C61.5719 9.106 61.0176 9.51179 60.6217 9.96707V16.0539C60.6217 16.7962 60.6712 17.2812 60.79 17.5089C60.8989 17.7365 61.0572 17.8949 61.275 18.0136C61.4828 18.1225 61.9183 18.1819 62.5715 18.1819V18.6273H56.6628V18.1819C57.2071 18.1819 57.5931 18.1225 57.8109 18.0136C58.0286 17.9048 58.1969 17.7266 58.3058 17.4792C58.4146 17.2317 58.474 16.7666 58.474 16.0638V11.7288C58.474 10.4817 58.4344 9.68005 58.3552 9.31384C58.2959 9.03672 58.1969 8.84867 58.0682 8.74969C57.9395 8.65072 57.7614 8.59134 57.5338 8.59134C57.2863 8.59134 56.9993 8.65072 56.6628 8.77939L56.4648 8.334L60.0675 6.94837H60.6316V9.36333L60.6217 9.35343Z" fill="black"/>
<path d="M79.7337 11.5509C79.7337 13.2335 80.1593 14.5597 81.0204 15.5198C81.8914 16.4798 82.9108 16.9549 84.0886 16.9549C84.8705 16.9549 85.5534 16.747 86.1274 16.3412C86.7015 15.9354 87.1865 15.2327 87.5824 14.243L87.9882 14.4904C87.81 15.6187 87.2755 16.658 86.3947 17.5784C85.5138 18.5088 84.4152 18.9739 83.089 18.9739C81.6538 18.9739 80.4266 18.4395 79.4071 17.3805C78.3877 16.3214 77.873 14.8863 77.873 13.0949C77.873 11.155 78.3976 9.64072 79.4467 8.55201C80.4958 7.4633 81.8122 6.91895 83.3958 6.91895C84.7319 6.91895 85.8404 7.33463 86.7015 8.17591C87.5626 9.01719 87.9882 10.1356 87.9882 11.541H79.7337V11.5509ZM79.7337 10.8284H85.2664C85.2268 10.1059 85.1278 9.59123 84.9893 9.29431C84.7715 8.82914 84.4449 8.47283 84.0193 8.2056C83.5838 7.93837 83.1384 7.80971 82.6634 7.80971C81.9409 7.80971 81.2975 8.07694 80.7235 8.61139C80.1494 9.14585 79.8228 9.88815 79.7239 10.8383L79.7337 10.8284Z" fill="black"/>
<path d="M92.6487 14.4902C91.9163 14.1537 91.3521 13.6786 90.9661 13.0748C90.5801 12.4711 90.3822 11.7981 90.3822 11.0558C90.3822 9.92748 90.8276 8.96744 91.7183 8.15585C92.6091 7.34427 93.7473 6.93848 95.1428 6.93848C96.281 6.93848 97.2707 7.20571 98.1021 7.73027H100.636C101.012 7.73027 101.23 7.74016 101.289 7.75996C101.348 7.77975 101.398 7.81934 101.418 7.86883C101.467 7.94801 101.497 8.07667 101.497 8.26472C101.497 8.48247 101.477 8.63093 101.428 8.7101C101.398 8.74969 101.358 8.78928 101.289 8.80908C101.22 8.82887 101.002 8.84867 100.626 8.84867H99.0721C99.557 9.44251 99.8045 10.2046 99.8045 11.1251C99.8045 12.1841 99.3789 13.0847 98.5277 13.8369C97.6765 14.5891 96.5284 14.9652 95.0933 14.9652C94.4995 14.9652 93.8957 14.8861 93.2821 14.7178C92.8961 15.0345 92.6388 15.3017 92.5101 15.5393C92.3716 15.7768 92.3023 15.9748 92.3023 16.143C92.3023 16.2816 92.3716 16.4201 92.52 16.5488C92.6685 16.6775 92.9456 16.7765 93.3613 16.8358C93.6087 16.8655 94.2125 16.8952 95.1923 16.9249C96.9837 16.9645 98.1417 17.0239 98.6762 17.1031C99.4878 17.2119 100.131 17.499 100.616 17.9542C101.101 18.4194 101.339 18.9836 101.339 19.6665C101.339 20.5968 100.873 21.4777 99.9529 22.2992C98.597 23.5067 96.8254 24.1104 94.638 24.1104C92.9555 24.1104 91.5402 23.7541 90.3822 23.0316C89.729 22.6159 89.4023 22.1903 89.4023 21.7449C89.4023 21.547 89.4518 21.349 89.5409 21.1511C89.6894 20.8443 89.9962 20.4187 90.4515 19.8743C90.5108 19.805 90.9562 19.3498 91.7777 18.5382C91.3224 18.2809 91.0057 18.0532 90.8177 17.8553C90.6296 17.6474 90.5405 17.4198 90.5405 17.1625C90.5405 16.8754 90.6593 16.5389 90.9166 16.143C91.1641 15.757 91.7381 15.2028 92.6289 14.4902H92.6487ZM92.52 18.6273C92.1142 19.0528 91.8074 19.4388 91.5897 19.805C91.3818 20.1713 91.2729 20.5078 91.2729 20.8047C91.2729 21.2006 91.5204 21.547 92.0251 21.8439C92.8961 22.3586 94.1531 22.6159 95.796 22.6159C97.439 22.6159 98.5178 22.3487 99.2601 21.8241C100.002 21.2996 100.379 20.7354 100.379 20.1416C100.379 19.716 100.161 19.4092 99.7154 19.2211C99.2601 19.043 98.3694 18.9341 97.0332 18.8945C95.0735 18.845 93.5691 18.746 92.52 18.6075V18.6273ZM94.9152 7.53232C94.2718 7.53232 93.7275 7.77975 93.3019 8.26472C92.8664 8.74969 92.6487 9.50189 92.6487 10.5114C92.6487 11.8179 92.9456 12.8274 93.5394 13.5499C93.9947 14.0943 94.5688 14.3714 95.2616 14.3714C95.9247 14.3714 96.4691 14.1339 96.8946 13.6687C97.3202 13.1936 97.538 12.4612 97.538 11.4517C97.538 10.1353 97.2411 9.106 96.6373 8.3637C96.1919 7.81934 95.6278 7.54222 94.9251 7.54222L94.9152 7.53232Z" fill="black"/>
<path d="M106.178 6.93848V9.492C107.178 7.78965 108.207 6.93848 109.256 6.93848C109.731 6.93848 110.127 7.07704 110.444 7.35417C110.761 7.63129 110.909 7.94801 110.909 8.31421C110.909 8.64082 110.8 8.90805 110.573 9.13569C110.345 9.36333 110.078 9.4722 109.761 9.4722C109.444 9.4722 109.118 9.33364 108.742 9.04661C108.366 8.75959 108.079 8.62103 107.9 8.62103C107.742 8.62103 107.574 8.70021 107.396 8.86846C107 9.20497 106.604 9.76912 106.178 10.5411V15.9847C106.178 16.6082 106.257 17.0932 106.426 17.4099C106.535 17.6375 106.742 17.8157 107.029 17.9641C107.316 18.1126 107.732 18.1918 108.267 18.1918V18.6372H102.15V18.1918C102.764 18.1918 103.209 18.1027 103.506 17.9147C103.724 17.786 103.872 17.5682 103.961 17.2812C104.001 17.1427 104.031 16.7369 104.031 16.0836V11.6793C104.031 10.3531 104.001 9.57117 103.951 9.31384C103.892 9.06641 103.793 8.87836 103.635 8.75959C103.486 8.64082 103.288 8.59134 103.07 8.59134C102.803 8.59134 102.496 8.65072 102.16 8.77939L102.031 8.334L105.644 6.94837H106.188L106.178 6.93848Z" fill="black"/>
<path d="M118.214 16.9941C116.986 17.8947 116.214 18.4193 115.907 18.5578C115.442 18.7657 114.937 18.8647 114.403 18.8647C113.582 18.8647 112.899 18.5974 112.364 18.063C111.83 17.5285 111.562 16.8159 111.562 15.9449C111.562 15.3907 111.691 14.9156 111.948 14.5098C112.305 13.9457 112.928 13.4211 113.809 12.9262C114.69 12.4314 116.165 11.8276 118.214 11.115V10.6697C118.214 9.54135 118.025 8.75946 117.649 8.33387C117.273 7.90829 116.719 7.70044 115.997 7.70044C115.452 7.70044 115.017 7.839 114.69 8.12603C114.363 8.40315 114.195 8.72977 114.195 9.09597L114.225 9.81848C114.225 10.1946 114.126 10.4915 113.918 10.6993C113.71 10.9072 113.443 11.0062 113.116 11.0062C112.79 11.0062 112.532 10.8973 112.325 10.6795C112.117 10.4618 112.018 10.1748 112.018 9.79868C112.018 9.08607 112.404 8.43285 113.166 7.839C113.928 7.24516 115.007 6.94824 116.392 6.94824C117.451 6.94824 118.322 7.1165 119.005 7.45301C119.52 7.71034 119.896 8.10623 120.144 8.65059C120.302 9.00689 120.381 9.7294 120.381 10.828V14.688C120.381 15.7668 120.401 16.4299 120.45 16.6773C120.49 16.9248 120.569 17.0831 120.668 17.1722C120.767 17.2514 120.886 17.291 121.014 17.291C121.153 17.291 121.272 17.2613 121.381 17.2019C121.559 17.093 121.915 16.7961 122.44 16.3012V16.9941C121.46 18.2312 120.53 18.8548 119.649 18.8548C119.223 18.8548 118.887 18.7162 118.629 18.4292C118.372 18.1521 118.243 17.6671 118.233 16.9941H118.214ZM118.214 16.1825V11.8573C116.897 12.3522 116.056 12.7085 115.67 12.9065C114.987 13.2727 114.492 13.6488 114.195 14.0447C113.898 14.4405 113.75 14.876 113.75 15.3412C113.75 15.935 113.938 16.4299 114.314 16.8258C114.69 17.2217 115.116 17.4098 115.601 17.4098C116.264 17.4098 117.135 16.9941 118.214 16.1726V16.1825Z" fill="black"/>
<path d="M122.311 8.40329L125.993 6.98796H126.488V9.64046C127.102 8.64082 127.725 7.93811 128.349 7.54222C128.972 7.13642 129.626 6.93848 130.309 6.93848C131.506 6.93848 132.506 7.38386 133.307 8.27462C134.287 9.36333 134.782 10.7886 134.782 12.5404C134.782 14.5001 134.188 16.1232 133.011 17.4C132.041 18.4491 130.813 18.9737 129.329 18.9737C128.685 18.9737 128.131 18.8846 127.656 18.7163C127.31 18.5976 126.914 18.3402 126.478 17.974V21.4282C126.478 22.2101 126.528 22.6951 126.627 22.9128C126.726 23.1207 126.904 23.2889 127.151 23.4176C127.399 23.5463 127.854 23.6056 128.507 23.6056V24.0609H122.242V23.6056H122.569C123.044 23.6056 123.46 23.5265 123.796 23.3483C123.964 23.2592 124.093 23.1108 124.182 22.9029C124.271 22.705 124.321 22.1903 124.321 21.3589V10.6203C124.321 9.88789 124.281 9.42271 124.212 9.22477C124.142 9.02682 124.034 8.87836 123.875 8.77939C123.727 8.68041 123.519 8.63093 123.252 8.63093C123.044 8.63093 122.777 8.69031 122.46 8.80908L122.302 8.41318L122.311 8.40329ZM126.488 10.3729V14.6089C126.488 15.5294 126.528 16.1331 126.607 16.4201C126.726 16.8952 127.023 17.3208 127.498 17.687C127.973 18.0532 128.567 18.2314 129.289 18.2314C130.16 18.2314 130.863 17.9048 131.397 17.2614C132.1 16.4201 132.456 15.2325 132.456 13.7083C132.456 11.9762 132.06 10.6401 131.259 9.69984C130.704 9.05651 130.041 8.7299 129.279 8.7299C128.864 8.7299 128.448 8.82887 128.042 9.02682C127.725 9.17528 127.211 9.62066 126.488 10.363V10.3729Z" fill="black"/>
<path d="M139.909 1V9.30389C140.869 8.29436 141.641 7.65103 142.205 7.364C142.769 7.07698 143.333 6.93842 143.898 6.93842C144.581 6.93842 145.155 7.11657 145.649 7.47287C146.134 7.82918 146.501 8.38343 146.728 9.14553C146.897 9.67009 146.976 10.64 146.976 12.0455V16.0638C146.976 16.7863 147.035 17.2713 147.164 17.5385C147.253 17.7364 147.401 17.8948 147.609 18.0136C147.817 18.1323 148.203 18.1818 148.757 18.1818V18.6272H142.888V18.1818H143.165C143.719 18.1818 144.105 18.1026 144.323 17.9443C144.541 17.7859 144.689 17.5484 144.778 17.2317C144.808 17.103 144.818 16.7071 144.818 16.0638V12.0455C144.818 10.8083 144.749 9.9868 144.61 9.60081C144.472 9.21481 144.264 8.91789 143.967 8.72984C143.67 8.54179 143.314 8.44282 142.898 8.44282C142.482 8.44282 142.027 8.55169 141.572 8.76943C141.107 8.98717 140.562 9.42266 139.919 10.0759V16.0737C139.919 16.8556 139.968 17.3306 140.057 17.5286C140.147 17.7166 140.315 17.875 140.562 18.0037C140.81 18.1323 141.235 18.1917 141.849 18.1917V18.6371H135.92V18.1917C136.455 18.1917 136.87 18.1125 137.177 17.9542C137.355 17.875 137.494 17.7166 137.593 17.4791C137.702 17.2515 137.751 16.7764 137.751 16.0638V5.78043C137.751 4.48387 137.722 3.68219 137.652 3.38526C137.583 3.08834 137.484 2.8904 137.355 2.78153C137.217 2.67265 137.039 2.62317 136.811 2.62317C136.633 2.62317 136.336 2.69245 135.92 2.82111L135.742 2.38563L139.315 1H139.919L139.909 1Z" fill="black"/>
<path d="M148.945 7.27539H154.518V7.73067H154.241C153.845 7.73067 153.558 7.80985 153.36 7.96821C153.162 8.12656 153.063 8.33441 153.063 8.57194C153.063 8.89856 153.201 9.34394 153.498 9.90809L156.408 15.6387L159.08 9.36373C159.229 9.02722 159.298 8.69071 159.298 8.3641C159.298 8.21564 159.268 8.10677 159.209 8.02759C159.14 7.93851 159.031 7.86923 158.882 7.80985C158.734 7.76036 158.477 7.73067 158.101 7.73067V7.27539H161.99V7.73067C161.664 7.76036 161.416 7.82964 161.248 7.92862C161.07 8.02759 160.882 8.21564 160.674 8.48287C160.595 8.60164 160.446 8.91835 160.228 9.43302L155.359 20.7655C154.894 21.8641 154.27 22.6955 153.508 23.2596C152.746 23.8238 152.014 24.1009 151.311 24.1009C150.796 24.1009 150.371 23.9623 150.044 23.6753C149.717 23.3982 149.549 23.0716 149.549 22.7054C149.549 22.3392 149.668 22.0818 149.905 21.874C150.143 21.6662 150.47 21.5573 150.895 21.5573C151.182 21.5573 151.578 21.6464 152.073 21.8344C152.419 21.9532 152.637 22.0225 152.726 22.0225C152.984 22.0225 153.271 21.8938 153.577 21.6365C153.884 21.3791 154.201 20.8843 154.508 20.1519L155.359 18.1823L151.063 9.62107C150.935 9.36373 150.727 9.04702 150.44 8.67092C150.222 8.3839 150.044 8.18595 149.905 8.08697C149.708 7.95831 149.381 7.83954 148.936 7.74057V7.28529L148.945 7.27539Z" fill="black"/>
</svg>
